<?xml version="1.0" standalone="no"?>
<!DOCTYPE svg PUBLIC "-//W3C//DTD SVG 20010904//EN"
 "http://www.w3.org/TR/2001/REC-SVG-20010904/DTD/svg10.dtd">
<svg version="1.0" xmlns="http://www.w3.org/2000/svg"
 width="512.000000pt" height="512.000000pt" viewBox="0 0 512.000000 512.000000"
 preserveAspectRatio="xMidYMid meet">
<metadata>
Created by potrace 1.14, written by Peter Selinger 2001-2017
</metadata>
<g transform="translate(0.000000,512.000000) scale(0.100000,-0.100000)"
fill="#000000" stroke="none">
<path d="M1965 5111 c3 -6 -1 -13 -9 -18 -8 -4 -16 -12 -18 -18 -2 -5 -7 -9
-11 -7 -5 1 -6 -2 -2 -8 3 -5 1 -10 -5 -10 -6 0 -9 -4 -6 -9 3 -5 -1 -12 -9
-15 -8 -3 -14 -11 -13 -18 2 -7 -3 -12 -9 -10 -7 1 -12 -1 -11 -5 4 -14 -26
-83 -35 -83 -5 0 -7 -9 -4 -20 3 -11 1 -18 -4 -14 -8 5 -13 -9 -10 -28 0 -5
-3 -8 -8 -8 -5 0 -7 -13 -6 -30 1 -16 -2 -30 -7 -30 -5 0 -6 -4 -3 -10 3 -5 0
-10 -7 -10 -9 0 -9 -3 2 -10 12 -8 12 -10 1 -10 -8 0 -11 -7 -8 -19 3 -12 -1
-22 -9 -25 -9 -4 -13 -15 -10 -31 3 -13 0 -27 -5 -31 -6 -3 -8 -12 -5 -20 3
-8 2 -14 -2 -14 -5 0 -8 -17 -8 -37 0 -21 -4 -37 -9 -36 -6 1 -11 -11 -12 -25
-4 -50 -8 -67 -18 -74 -6 -5 -4 -12 5 -18 8 -5 11 -10 5 -10 -5 0 -11 -16 -11
-35 -1 -19 3 -35 8 -35 6 0 7 -7 4 -16 -3 -8 -2 -13 2 -11 4 2 21 -11 39 -29
21 -21 28 -34 20 -38 -7 -2 -4 -5 6 -5 15 -1 16 -4 6 -22 -6 -12 -7 -19 -1
-15 5 3 15 -1 22 -9 9 -10 9 -15 1 -15 -6 0 -11 -5 -11 -11 0 -5 5 -7 11 -3 6
3 4 -5 -5 -18 -9 -14 -13 -28 -9 -31 3 -4 1 -7 -6 -7 -8 0 -11 -8 -8 -20 3
-13 0 -20 -9 -20 -8 0 -13 -3 -13 -7 4 -22 -2 -33 -13 -27 -8 5 -9 2 -5 -10 4
-10 3 -15 -3 -11 -6 3 -13 -1 -16 -9 -3 -9 -10 -13 -15 -10 -6 3 -16 0 -24 -6
-8 -6 -20 -8 -26 -4 -8 5 -10 2 -7 -8 5 -11 0 -14 -18 -12 -13 1 -24 -2 -24
-8 0 -15 -27 -38 -35 -30 -5 4 -5 1 -1 -6 4 -6 0 -19 -8 -28 -9 -9 -13 -20
-10 -26 4 -6 3 -9 -2 -6 -5 3 -16 -2 -24 -11 -16 -17 -21 -123 -7 -137 4 -4 2
-13 -4 -21 -6 -7 -8 -13 -4 -13 5 0 -2 -9 -15 -20 -13 -11 -27 -20 -32 -20 -5
0 -7 -4 -3 -9 3 -6 -4 -8 -15 -6 -11 2 -18 0 -16 -4 3 -4 -7 -14 -22 -22 -15
-8 -35 -22 -44 -33 -10 -10 -18 -16 -18 -12 0 9 -26 -16 -28 -26 -1 -5 -10
-17 -19 -27 -39 -43 -48 -56 -45 -68 2 -8 -3 -10 -13 -7 -11 5 -14 2 -9 -10 4
-9 1 -16 -6 -16 -10 0 -9 -4 0 -16 11 -12 11 -15 -1 -12 -9 2 -14 -5 -13 -19
0 -12 -3 -20 -8 -17 -4 3 -8 0 -8 -7 0 -7 -8 -21 -17 -32 -13 -15 -14 -19 -3
-13 8 4 6 0 -4 -8 -11 -9 -16 -16 -10 -16 5 0 0 -7 -10 -15 -11 -8 -16 -15
-10 -15 5 0 -4 -9 -21 -20 -16 -11 -36 -18 -42 -15 -7 2 -13 -3 -13 -11 0 -8
-5 -12 -10 -9 -6 3 -13 0 -16 -9 -3 -8 -12 -12 -20 -9 -7 3 -16 -2 -20 -10 -3
-9 -11 -14 -19 -11 -7 3 -20 -2 -29 -11 -9 -9 -20 -13 -26 -10 -6 4 -10 3 -9
-2 3 -20 -2 -27 -11 -13 -8 13 -10 12 -10 -3 0 -10 -5 -15 -10 -12 -6 3 -13
-1 -16 -9 -3 -9 -10 -14 -14 -11 -4 3 -11 -2 -14 -11 -3 -8 -10 -12 -16 -9 -5
3 -10 1 -10 -5 0 -6 -10 -24 -21 -39 -13 -17 -18 -34 -14 -42 6 -8 4 -10 -5
-4 -10 6 -12 3 -8 -13 4 -12 3 -22 -1 -22 -4 0 -6 -13 -3 -30 2 -16 8 -30 11
-30 4 0 8 -7 9 -15 1 -8 3 -22 4 -30 1 -8 5 -15 10 -15 5 0 7 -4 4 -9 -4 -5
-2 -11 3 -13 6 -1 11 -14 13 -28 2 -14 7 -31 11 -37 5 -7 4 -13 -1 -13 -6 0
-9 -16 -7 -35 3 -27 -2 -41 -21 -60 -13 -13 -24 -27 -24 -31 0 -4 -8 -13 -17
-21 -11 -8 -12 -11 -3 -7 13 7 13 5 1 -9 -7 -9 -11 -30 -9 -47 3 -16 1 -30 -3
-30 -11 0 1 -33 15 -42 7 -5 6 -8 -3 -8 -11 0 -11 -3 -1 -15 9 -11 9 -15 1
-15 -7 0 -9 -5 -6 -10 3 -5 1 -10 -6 -10 -8 0 -8 -4 1 -15 8 -10 9 -15 2 -15
-7 0 -9 -7 -5 -17 4 -11 3 -14 -5 -9 -8 5 -12 -1 -12 -17 0 -13 -3 -27 -7 -31
-8 -8 -12 -28 -16 -78 -1 -20 -6 -40 -10 -44 -4 -4 -7 -20 -7 -36 0 -15 -4
-28 -8 -28 -4 0 -9 -12 -10 -27 -1 -16 -7 -30 -12 -31 -6 -2 -7 -8 -4 -14 4
-6 1 -14 -5 -18 -7 -4 -13 -16 -14 -27 0 -12 -6 -19 -13 -16 -8 3 -11 -3 -10
-14 2 -10 -1 -21 -6 -24 -5 -3 -10 -15 -13 -27 -2 -11 -8 -29 -12 -39 -5 -10
-8 -28 -7 -41 0 -12 -4 -22 -10 -22 -6 0 -4 -5 4 -10 8 -5 10 -10 4 -10 -7 0
-15 -7 -18 -16 -4 -9 -2 -13 5 -8 8 4 7 0 0 -15 -7 -11 -8 -21 -4 -21 4 0 4
-4 -2 -8 -17 -12 -41 -47 -27 -38 6 4 12 2 12 -3 0 -6 -4 -11 -9 -11 -4 0 -8
-10 -7 -22 1 -13 -5 -29 -14 -36 -8 -8 -9 -11 -2 -7 6 3 12 1 12 -4 0 -6 -5
-11 -11 -11 -8 0 -9 -4 0 -13 6 -8 8 -17 4 -21 -12 -11 -12 -36 0 -36 5 0 7
-3 4 -7 -4 -3 -1 -13 6 -21 9 -13 9 -14 0 -8 -9 5 -11 2 -7 -8 3 -9 10 -16 15
-16 5 0 8 -3 7 -7 -4 -14 13 -53 23 -53 5 0 9 -10 9 -22 0 -12 3 -19 6 -15 7
6 54 -41 54 -54 0 -5 7 -9 16 -9 8 0 12 -4 9 -10 -3 -5 -1 -10 4 -10 6 0 11
-7 11 -16 0 -8 3 -13 7 -11 5 3 13 -1 20 -8 10 -11 10 -15 0 -18 -9 -4 -9 -6
1 -6 7 -1 40 -28 73 -61 32 -33 62 -61 67 -62 4 -2 6 -6 5 -10 -2 -5 1 -8 5
-8 5 0 9 -6 9 -14 0 -8 -6 -12 -14 -9 -7 3 -13 -2 -13 -11 0 -9 -7 -19 -15
-22 -8 -4 -12 -10 -9 -15 3 -5 -2 -12 -10 -15 -9 -3 -13 -10 -11 -15 3 -5 -2
-20 -11 -34 -9 -14 -13 -25 -9 -25 4 0 2 -6 -4 -14 -8 -9 -8 -16 -2 -20 21
-13 -68 -136 -92 -128 -5 1 -5 -2 -2 -9 4 -6 -2 -19 -14 -30 -12 -11 -19 -24
-16 -29 3 -4 0 -10 -6 -12 -6 -2 -13 -15 -14 -28 -1 -14 -3 -31 -4 -38 0 -8
-6 -10 -13 -6 -10 6 -10 5 -1 -8 7 -8 10 -18 6 -22 -11 -10 -9 -60 2 -68 6 -5
6 -8 -2 -8 -13 0 -7 -51 7 -60 5 -3 8 -16 5 -28 -2 -12 0 -21 5 -19 4 1 8 -1
9 -5 1 -5 9 -17 19 -27 35 -39 43 -51 33 -51 -5 0 -8 -9 -6 -20 2 -11 -3 -24
-13 -30 -14 -8 -14 -10 -2 -10 12 -1 12 -3 -2 -14 -10 -7 -15 -16 -11 -19 3
-4 1 -7 -6 -7 -7 0 -10 -4 -6 -10 3 -5 -7 -16 -22 -24 -15 -8 -24 -15 -20 -16
4 0 2 -6 -5 -14 -7 -8 -17 -11 -22 -8 -5 3 -6 0 -2 -7 5 -7 0 -21 -11 -33 -12
-14 -13 -18 -3 -13 12 7 13 6 3 -7 -7 -8 -10 -18 -6 -21 3 -4 574 -7 1268 -7
1115 0 1262 2 1262 15 0 8 -6 15 -13 15 -8 0 -11 6 -7 15 3 9 -3 23 -13 31
-11 9 -13 12 -5 8 9 -5 12 -3 7 4 -4 7 -14 12 -23 12 -13 0 -13 3 -3 15 10 12
9 15 -4 15 -10 0 -15 4 -12 9 4 5 1 11 -4 13 -6 2 -13 16 -16 32 -4 25 -2 28
15 23 11 -3 22 0 25 7 3 7 5 7 5 -1 1 -7 6 -13 12 -13 5 0 7 5 3 12 -5 7 -3 8
7 2 18 -11 39 -14 39 -6 0 4 17 7 37 6 21 0 46 3 57 9 14 7 17 6 11 -4 -6 -9
-3 -10 11 -5 43 18 57 20 50 5 -4 -8 -1 -6 7 3 8 10 17 15 20 11 4 -3 14 0 24
8 11 9 14 10 9 2 -4 -7 -2 -13 3 -13 19 0 12 28 -9 35 -11 4 -18 11 -15 16 4
5 0 9 -7 9 -7 0 -26 16 -42 35 -16 19 -34 32 -40 28 -6 -3 -8 -3 -4 1 8 10
-14 36 -24 29 -4 -2 -5 3 -2 11 4 10 -1 18 -11 22 -13 5 -14 9 -3 15 11 7 11
9 -1 9 -10 0 -11 4 -3 13 6 6 11 15 11 20 1 4 2 10 2 15 1 4 0 15 -1 26 -1 12
2 16 11 11 8 -6 10 -4 4 6 -8 12 -14 41 -17 76 -1 7 -5 10 -10 7 -4 -3 -8 7
-8 21 0 14 -4 24 -9 21 -5 -4 -8 2 -7 11 2 10 -1 21 -6 24 -5 3 -11 16 -13 29
-2 13 -10 27 -17 32 -7 4 -9 8 -4 8 5 0 1 9 -9 20 -10 11 -15 23 -12 26 4 4
-2 19 -13 35 -15 20 -17 29 -8 32 10 4 10 6 0 6 -7 1 -10 5 -7 11 3 5 2 10 -4
10 -5 0 -8 12 -5 26 3 15 1 23 -5 20 -6 -4 -9 13 -6 46 5 72 11 93 25 90 6 -1
9 2 5 8 -3 5 3 23 14 39 11 15 17 31 14 35 -4 4 0 4 9 1 9 -4 18 0 22 10 3 9
10 14 15 10 5 -3 12 4 16 15 4 11 11 18 16 15 5 -4 9 3 9 15 0 11 7 23 15 26
8 4 13 10 10 14 -3 5 -1 11 5 15 5 3 10 15 10 26 0 11 5 17 10 14 6 -3 10 -1
10 6 0 8 3 9 13 0 8 -6 17 -8 20 -5 4 4 4 -3 2 -16 -3 -16 0 -20 10 -16 8 3
14 2 14 -2 -3 -20 2 -33 11 -27 6 3 7 -1 4 -9 -7 -18 16 -44 34 -38 7 2 10 -2
6 -11 -3 -8 0 -18 5 -22 6 -3 8 -11 5 -17 -4 -6 -2 -8 4 -4 6 3 16 -7 24 -24
7 -18 18 -28 26 -25 7 3 11 1 8 -4 -3 -5 1 -14 9 -21 8 -7 15 -9 15 -5 0 5 8
1 18 -7 9 -8 24 -15 32 -15 44 0 114 -16 127 -29 8 -8 19 -12 24 -9 5 4 9 1 9
-4 0 -6 7 -11 16 -11 8 0 12 -4 9 -10 -3 -5 -1 -10 6 -10 10 0 10 -3 1 -12 -9
-9 -8 -16 6 -32 9 -11 12 -16 6 -13 -18 10 -25 -20 -8 -34 8 -7 12 -19 9 -27
-3 -9 0 -12 9 -9 10 4 13 1 9 -9 -3 -7 -10 -14 -17 -14 -6 0 -4 -5 4 -10 8 -5
10 -10 4 -10 -6 0 -11 -7 -11 -15 0 -8 4 -12 8 -10 9 6 31 -48 28 -66 -5 -26
12 -59 31 -59 11 0 31 11 46 25 15 14 24 25 20 25 -4 0 0 7 8 16 19 19 21 34
4 34 -10 0 -10 2 0 9 8 4 13 17 12 27 -4 32 0 45 9 40 5 -3 11 3 14 14 3 11
11 19 19 18 7 -2 12 2 11 9 -2 7 6 10 17 8 12 -2 18 0 15 6 -4 5 2 9 11 9 10
0 14 3 11 7 -4 3 -2 12 4 20 9 10 8 13 -1 13 -9 0 -10 3 -1 13 6 8 8 17 4 20
-3 4 0 7 8 7 11 0 11 2 -1 10 -13 8 -13 10 -1 10 12 0 12 3 3 12 -13 13 -17
32 -4 25 4 -3 7 12 7 33 0 21 -3 36 -7 33 -5 -2 -5 -9 -2 -15 4 -7 2 -8 -4 -4
-12 7 -5 36 9 36 5 0 9 5 9 11 0 5 -4 7 -10 4 -5 -3 -10 -1 -10 5 0 6 7 13 15
16 8 4 12 10 9 15 -12 20 48 7 69 -14 40 -43 57 -67 57 -83 0 -8 4 -13 9 -10
5 3 11 -1 15 -9 3 -8 12 -15 21 -15 8 0 14 -3 12 -8 -1 -4 2 -8 7 -9 5 -1 13
-7 17 -15 7 -10 9 -10 9 0 0 7 5 10 10 7 6 -4 7 -12 3 -18 -3 -7 3 -4 14 6 22
19 39 62 20 50 -6 -4 -8 0 -4 10 3 10 2 17 -3 17 -6 0 -10 9 -10 20 0 11 -4
20 -10 20 -5 0 -10 8 -10 18 0 10 -9 24 -20 32 -11 8 -20 20 -20 27 0 7 -4 13
-10 13 -5 0 -10 6 -10 13 0 7 -11 21 -25 31 -14 11 -24 25 -21 33 3 7 2 12 -2
12 -21 -3 -43 2 -38 10 3 4 -7 14 -21 20 -15 7 -33 21 -41 32 -7 11 -18 16
-24 13 -8 -5 -9 -1 -5 10 4 9 3 15 -2 12 -10 -7 -61 38 -61 54 0 6 -5 8 -12 4
-7 -5 -8 -3 -2 7 5 8 7 22 6 32 -2 9 2 17 8 17 6 0 8 5 5 10 -3 6 -1 10 5 10
6 0 9 4 6 9 -4 5 0 12 6 14 10 4 10 6 1 6 -7 1 -13 9 -13 19 0 14 -2 15 -10 2
-8 -12 -10 -12 -16 3 -6 17 -8 16 -21 -3 -8 -11 -19 -18 -24 -15 -5 4 -9 2 -9
-3 0 -5 -10 -9 -22 -9 -41 1 -98 -15 -98 -27 0 -6 -5 -4 -10 4 -6 10 -10 11
-10 3 0 -8 -13 -13 -30 -13 -16 0 -30 -4 -30 -10 0 -5 -7 -7 -15 -4 -8 4 -12
11 -8 17 3 6 1 7 -6 3 -6 -4 -9 -12 -6 -17 4 -5 1 -9 -4 -9 -6 0 -11 6 -11 13
0 9 -2 9 -8 1 -4 -7 -23 -13 -42 -15 -19 -2 -38 -8 -42 -14 -5 -6 -8 -2 -8 8
0 10 -4 16 -9 13 -12 -8 -33 19 -23 29 4 5 2 5 -5 1 -7 -4 -17 2 -23 14 -6 11
-8 20 -5 20 2 0 -6 25 -20 56 -14 31 -22 60 -19 65 3 5 1 9 -5 9 -6 0 -8 6 -5
14 3 8 0 17 -5 21 -6 3 -9 10 -6 15 3 5 1 11 -5 15 -5 3 -10 15 -10 26 0 10
-4 19 -9 19 -5 0 -8 12 -5 26 3 16 1 23 -6 19 -5 -3 -7 0 -4 8 3 8 -2 21 -10
30 -8 8 -13 17 -10 19 2 3 0 17 -5 30 -7 18 -6 29 2 38 9 10 9 11 0 6 -7 -4
-14 -2 -14 3 -3 21 -4 26 -13 40 -7 11 -6 12 5 6 8 -5 7 0 -4 12 -9 11 -14 23
-10 26 3 4 2 7 -4 7 -5 0 -10 7 -11 15 -1 8 -3 22 -4 30 -1 8 -5 12 -9 10 -4
-3 -9 2 -13 10 -3 8 0 15 6 15 7 0 6 5 -2 15 -9 11 -9 15 -1 15 7 0 9 5 6 10
-3 6 -1 10 4 10 6 0 11 7 11 16 0 8 4 13 9 9 5 -3 16 1 24 9 8 8 18 12 22 8 4
-4 5 0 3 8 -2 8 3 14 10 12 8 -1 11 2 7 8 -3 5 1 13 9 16 9 3 14 10 11 14 -3
4 2 11 11 14 8 3 13 10 9 16 -3 5 3 18 15 30 11 11 20 22 21 25 5 28 13 45 21
45 5 0 6 5 3 10 -3 6 -1 10 5 10 6 0 9 4 5 9 -3 6 0 13 8 18 7 4 13 15 13 23
1 28 16 70 26 70 5 0 6 5 3 10 -3 6 1 13 10 16 13 6 14 8 3 15 -10 7 -10 9 0
9 6 0 12 9 12 20 0 11 5 20 11 20 6 0 9 9 6 20 -3 11 -1 18 3 15 11 -7 23 31
15 45 -3 5 0 8 7 5 9 -4 14 6 15 31 1 20 7 42 12 47 6 6 11 19 11 29 0 10 4
18 10 18 5 0 7 7 4 15 -4 8 -1 15 6 15 6 0 9 4 5 9 -3 5 3 17 12 27 10 10 17
19 16 21 -1 1 4 18 12 37 8 20 15 42 15 50 0 8 5 18 11 22 8 4 7 9 -2 15 -11
7 -11 9 -1 9 9 0 11 7 7 21 -5 15 -4 19 4 15 16 -10 13 0 -5 18 -9 9 -11 16
-4 16 6 0 9 3 7 8 -6 8 -19 78 -20 105 -1 9 -4 17 -7 17 -4 0 -7 7 -8 15 -1 8
-3 22 -4 30 -1 8 -5 15 -10 15 -5 0 -6 5 -3 10 3 6 1 10 -4 10 -6 0 -11 5 -11
11 0 5 5 7 12 3 7 -4 2 7 -11 24 -12 18 -20 32 -17 32 3 0 -6 12 -19 26 -13
14 -27 35 -30 45 -4 11 -11 19 -16 19 -5 0 -9 7 -9 16 0 8 -4 12 -10 9 -5 -3
-10 1 -10 10 0 9 -3 14 -7 12 -5 -3 -14 1 -21 9 -7 8 -8 14 -3 14 6 0 7 7 4
17 -4 10 -2 14 4 10 7 -5 9 0 6 14 -6 22 29 63 43 51 5 -4 2 2 -6 12 -10 13
-10 17 -2 12 7 -4 12 -2 12 6 0 10 2 10 9 -1 6 -9 11 -10 15 -2 4 6 4 11 0 11
-4 0 1 7 12 16 10 8 12 13 4 9 -8 -4 -6 1 4 9 11 9 17 16 13 16 -4 0 -3 10 4
21 9 17 8 23 -2 30 -12 7 -12 9 0 9 11 0 11 3 1 15 -9 10 -9 15 -1 15 6 0 11
5 11 11 0 5 -5 7 -11 3 -8 -5 -8 -1 0 14 6 11 16 23 23 25 10 4 10 6 0 6 -7 1
-11 5 -8 10 8 12 -23 71 -36 71 -6 0 -9 3 -6 6 3 3 3 17 -2 32 -5 18 -2 37 8
57 14 27 14 29 -1 17 -13 -11 -15 -10 -10 8 3 12 11 19 19 16 8 -3 11 0 8 8
-3 8 0 17 5 21 6 3 9 11 6 16 -4 5 1 12 10 15 13 6 14 8 3 15 -10 7 -9 9 5 9
9 0 16 3 16 8 -3 19 2 33 10 28 5 -4 8 2 7 11 -2 10 4 29 13 43 9 14 11 21 4
17 -9 -6 -11 -3 -7 7 3 9 10 16 14 16 5 0 7 8 5 18 -1 9 0 21 3 27 9 15 9 134
0 129 -4 -3 -5 2 -1 11 3 10 0 21 -8 26 -11 6 -11 9 -1 9 9 0 10 5 3 19 -6 10
-7 21 -4 25 3 3 1 6 -5 6 -6 0 -9 7 -5 17 4 11 3 14 -5 9 -8 -4 -10 3 -7 24 2
16 -1 30 -6 30 -6 0 -8 4 -4 9 3 5 -1 15 -8 23 -8 7 -12 19 -9 26 2 6 -3 15
-12 18 -9 3 -13 10 -11 15 3 5 -1 19 -10 32 -8 13 -12 27 -8 30 3 4 1 7 -5 7
-7 0 -12 9 -12 20 0 11 -6 20 -12 20 -9 0 -8 4 2 10 13 8 13 10 -2 10 -12 0
-15 6 -10 22 3 14 1 19 -6 14 -6 -4 -12 3 -14 16 -2 13 -9 22 -15 21 -7 -2
-10 4 -7 12 4 8 1 15 -5 15 -6 0 -11 9 -11 21 0 11 -4 18 -8 15 -5 -3 -15 4
-22 15 -14 19 -33 19 -758 19 -460 0 -741 -4 -737 -9z m-181 -437 c3 -8 2 -12
-4 -9 -6 3 -10 10 -10 16 0 14 7 11 14 -7z"/>
</g>
</svg>
